<svg width="182" height="182" viewBox="0 0 182 182" fill="none" xmlns="http://www.w3.org/2000/svg">
<path d="M130.724 9.90965C121.259 16.0896 111.991 18.0774 106.735 18.7072C104.225 19.0024 102.348 21.128 102.348 23.6275V46.2807C102.348 60.8055 111.22 73.8542 124.835 79.2863L131.515 81.9629C132.72 82.455 134.083 82.4353 135.309 81.9432L141.988 79.2075C155.583 73.618 164.476 60.4709 164.476 45.9461V23.2536C164.476 20.7541 162.598 18.6678 160.089 18.3923C154.832 17.8215 145.564 15.9518 136.099 9.87028C134.498 8.82717 132.384 8.84686 130.764 9.90965H130.724Z" fill="url(#paint0_linear_2921_8141)"/>
<path d="M64.8915 30.3316C50.0043 40.0851 35.4181 43.1894 27.1519 44.1908C23.1994 44.6715 20.25 47.9961 20.25 51.9416V87.6512C20.25 110.563 34.2143 131.112 55.6021 139.684L66.0954 143.889C67.0584 144.27 68.0616 144.45 69.0648 144.45H75.746L82.5275 139.523C103.915 130.711 117.88 110.002 117.88 87.0905V51.3808C117.88 47.4354 114.93 44.1508 110.978 43.7102C102.711 42.8089 90.7736 38.6431 75.8864 29.0698C75.8864 29.0698 70.5093 29.0698 69.0648 29.0698C67.6001 29.0698 66.1355 29.4904 64.8715 30.3316H64.8915Z" fill="url(#paint1_linear_2921_8141)"/>
<path d="M71.5396 30.3341C56.6555 40.087 42.0722 43.1911 33.8077 44.1924C29.856 44.6731 26.9072 47.9975 26.9072 51.9427V87.6499C26.9072 110.56 40.8686 131.107 62.252 139.679L72.7432 143.884C74.6488 144.645 76.7952 144.645 78.7008 143.844L89.1919 139.519C110.575 130.707 124.537 110 124.537 87.0892V51.382C124.537 47.4367 121.588 44.1524 117.636 43.7118C109.372 42.8106 94.7885 39.8467 79.9044 30.274C77.3769 28.6519 74.0671 28.6719 71.5195 30.3141L71.5396 30.3341Z" fill="url(#paint2_linear_2921_8141)"/>
<path d="M72.0983 38.9897C59.2399 47.2455 46.6439 49.8723 39.5183 50.7216C36.1069 51.1166 33.5635 53.9409 33.5635 57.2787V87.497C33.5635 106.892 45.6144 124.292 64.0845 131.541L73.148 135.096C74.8032 135.748 76.6401 135.728 78.2954 135.076L87.3588 131.422C105.829 123.956 117.88 106.418 117.88 87.0428V56.8245C117.88 53.4866 115.336 50.7018 111.925 50.3463C104.799 49.576 92.1833 47.0875 79.3451 38.97C77.165 37.5875 74.2986 37.6072 72.0983 39.0095V38.9897Z" fill="url(#paint3_linear_2921_8141)"/>
<path d="M73.6361 58.5408C66.1955 63.4059 58.8954 64.9675 54.764 65.468C52.7985 65.7082 51.3145 67.37 51.3145 69.332V87.1906C51.3145 98.6426 58.2937 108.933 68.9832 113.218L74.2377 115.32C75.2004 115.7 76.2633 115.7 77.2059 115.32L82.4604 113.158C93.15 108.753 100.129 98.3823 100.129 86.9304V69.0718C100.129 67.1097 98.6652 65.448 96.6797 65.2478C92.5483 64.8073 85.2481 63.3258 77.8076 58.5208C76.5441 57.6999 74.8795 57.7199 73.616 58.5408H73.6361Z" fill="url(#paint4_linear_2921_8141)"/>
<path opacity="0.3" d="M90.1769 172.9C133.709 172.832 168.944 166.415 168.944 158.573C168.944 150.731 133.639 144.383 90.1421 144.451C46.6449 144.519 11.375 150.935 11.375 158.777C11.375 166.619 46.6796 172.968 90.1769 172.9Z" fill="url(#paint5_radial_2921_8141)"/>
<defs>
<linearGradient id="paint0_linear_2921_8141" x1="105.984" y1="94.9132" x2="141.988" y2="19.873" gradientUnits="userSpaceOnUse">
<stop stop-color="#666666"/>
<stop offset="1" stop-color="#B4B4B4"/>
</linearGradient>
<linearGradient id="paint1_linear_2921_8141" x1="69.0848" y1="145.392" x2="69.0848" y2="72.7706" gradientUnits="userSpaceOnUse">
<stop/>
<stop offset="0.5" stop-color="#666666"/>
<stop offset="0.73" stop-color="#777777"/>
<stop offset="0.95" stop-color="#939393"/>
<stop offset="1" stop-color="#989898"/>
</linearGradient>
<linearGradient id="paint2_linear_2921_8141" x1="47.5284" y1="179.111" x2="95.6632" y2="-3.24944" gradientUnits="userSpaceOnUse">
<stop stop-color="#939393"/>
<stop offset="0.1" stop-color="#A3A3A3"/>
<stop offset="0.38" stop-color="#CBCBCB"/>
<stop offset="0.62" stop-color="#E7E7E7"/>
<stop offset="0.84" stop-color="#F8F8F8"/>
<stop offset="1" stop-color="white"/>
</linearGradient>
<linearGradient id="paint3_linear_2921_8141" x1="-112.38" y1="241.057" x2="113.778" y2="40.7446" gradientUnits="userSpaceOnUse">
<stop stop-color="#939393"/>
<stop offset="0.1" stop-color="#A3A3A3"/>
<stop offset="0.38" stop-color="#CBCBCB"/>
<stop offset="0.62" stop-color="#E7E7E7"/>
<stop offset="0.84" stop-color="#F8F8F8"/>
<stop offset="1" stop-color="white"/>
</linearGradient>
<linearGradient id="paint4_linear_2921_8141" x1="75.7217" y1="118.202" x2="75.7217" y2="54.8775" gradientUnits="userSpaceOnUse">
<stop stop-color="#7C47E1"/>
<stop offset="0.9994" stop-color="#D0BDF4"/>
</linearGradient>
<radialGradient id="paint5_radial_2921_8141" cx="0" cy="0" r="1" gradientTransform="matrix(71.1176 1.11493 0.191449 -11.679 90.1595 161.366)" gradientUnits="userSpaceOnUse">
<stop stop-color="#8C8C8C"/>
<stop offset="1" stop-color="#8F8F8F" stop-opacity="0"/>
</radialGradient>
</defs>
</svg>
