<svg width="17" height="17" viewBox="0 0 17 17" fill="none" xmlns="http://www.w3.org/2000/svg">
<path d="M6.3616 1.30583C7.00592 -0.435408 9.46869 -0.435408 10.113 1.30583L11.1592 4.13324C11.3618 4.68068 11.7934 5.1123 12.3409 5.31488L15.1683 6.36111C16.9095 7.00543 16.9095 9.4682 15.1683 10.1125L12.3409 11.1588C11.7934 11.3613 11.3618 11.7929 11.1592 12.3404L10.113 15.1678C9.46869 16.909 7.00592 16.909 6.3616 15.1678L5.31536 12.3404C5.11279 11.793 4.68117 11.3613 4.13373 11.1588L1.30632 10.1125C-0.43492 9.4682 -0.43492 7.00543 1.30632 6.36111L4.13373 5.31488C4.68117 5.1123 5.11279 4.68068 5.31536 4.13324L6.3616 1.30583Z" fill="#926FF3"/>
</svg>
